HIERARCHY
ROOT Hips
{
	OFFSET 0.000000 97.167313 0.000000
	CHANNELS 6 Xposition Yposition Zposition Xrotation Yrotation Zrotation
	JOINT Spine
	{
		OFFSET 0.000000 13.784798 0.064400
		CHANNELS 3 Xrotation Yrotation Zrotation
		JOINT Spine1
		{
			OFFSET 0.000000 12.037903 0.404700
			CHANNELS 3 Xrotation Yrotation Zrotation
			JOINT Spine2
			{
				OFFSET 0.000000 17.795601 0.420200
				CHANNELS 3 Xrotation Yrotation Zrotation
				JOINT Neck
				{
					OFFSET 0.000000 39.131302 11.954600
					CHANNELS 3 Xrotation Yrotation Zrotation
					JOINT Head
					{
						OFFSET 0.000000 14.456192 15.627699
						CHANNELS 3 Xrotation Yrotation Zrotation
						JOINT HeadTop_End
						{
							OFFSET 0.000000 15.703506 7.603401
							CHANNELS 3 Xrotation Yrotation Zrotation
							End Site
							{
								OFFSET 0.000000 17.447403 0.000000
							}
						}
					}
				}
				JOINT LeftShoulder
				{
					OFFSET 17.399500 24.608795 1.168800
					CHANNELS 3 Xrotation Yrotation Zrotation
					JOINT LeftArm
					{
						OFFSET 18.980635 5.765305 1.818600
						CHANNELS 3 Xrotation Yrotation Zrotation
						JOINT LeftForeArm
						{
							OFFSET 49.290169 0.000000 0.000000
							CHANNELS 3 Xrotation Yrotation Zrotation
							JOINT LeftHand
							{
								OFFSET 31.562012 0.000000 0.000000
								CHANNELS 3 Xrotation Yrotation Zrotation
								JOINT LeftHandThumb1
								{
									OFFSET 6.133995 -4.388519 7.076070
									CHANNELS 3 Xrotation Yrotation Zrotation
									JOINT LeftHandThumb2
									{
										OFFSET 6.037666 -3.485840 3.485847
										CHANNELS 3 Xrotation Yrotation Zrotation
										JOINT LeftHandThumb3
										{
											OFFSET 6.496506 -3.750763 3.750761
											CHANNELS 3 Xrotation Yrotation Zrotation
											JOINT LeftHandThumb4
											{
												OFFSET 5.616882 -3.242905 3.242910
												CHANNELS 3 Xrotation Yrotation Zrotation
												End Site
												{
													OFFSET -1.254608 7.132141 0.375429
												}
											}
										}
									}
								}
								JOINT LeftHandPinky1
								{
									OFFSET 18.920792 -0.453171 -11.426712
									CHANNELS 3 Xrotation Yrotation Zrotation
									JOINT LeftHandPinky2
									{
										OFFSET 4.919586 0.000000 0.000000
										CHANNELS 3 Xrotation Yrotation Zrotation
										JOINT LeftHandPinky3
										{
											OFFSET 5.233047 0.000000 0.000000
											CHANNELS 3 Xrotation Yrotation Zrotation
											JOINT LeftHandPinky4
											{
												OFFSET 5.571716 0.000000 0.000000
												CHANNELS 3 Xrotation Yrotation Zrotation
												End Site
												{
													OFFSET -3.459808 4.342407 -0.466164
												}
											}
										}
									}
								}
								JOINT LeftHandRing1
								{
									OFFSET 22.726120 -0.094986 -6.500475
									CHANNELS 3 Xrotation Yrotation Zrotation
									JOINT LeftHandRing2
									{
										OFFSET 6.408615 0.000000 0.000000
										CHANNELS 3 Xrotation Yrotation Zrotation
										JOINT LeftHandRing3
										{
											OFFSET 6.150223 0.000000 0.000000
											CHANNELS 3 Xrotation Yrotation Zrotation
											JOINT LeftHandRing4
											{
												OFFSET 6.145386 0.000000 0.000000
												CHANNELS 3 Xrotation Yrotation Zrotation
												End Site
												{
													OFFSET -3.671402 4.923981 -0.202372
												}
											}
										}
									}
								}
								JOINT LeftHandMiddle1
								{
									OFFSET 23.373947 0.000000 0.000001
									CHANNELS 3 Xrotation Yrotation Zrotation
									JOINT LeftHandMiddle2
									{
										OFFSET 6.996567 0.000000 0.000000
										CHANNELS 3 Xrotation Yrotation Zrotation
										JOINT LeftHandMiddle3
										{
											OFFSET 7.015945 0.000000 0.000000
											CHANNELS 3 Xrotation Yrotation Zrotation
											JOINT LeftHandMiddle4
											{
												OFFSET 7.721573 0.000000 0.000000
												CHANNELS 3 Xrotation Yrotation Zrotation
												End Site
												{
													OFFSET -4.651108 6.158463 0.251582
												}
											}
										}
									}
								}
								JOINT LeftHandIndex1
								{
									OFFSET 21.310577 -0.490082 6.209344
									CHANNELS 3 Xrotation Yrotation Zrotation
									JOINT LeftHandIndex2
									{
										OFFSET 7.536453 0.000000 0.000000
										CHANNELS 3 Xrotation Yrotation Zrotation
										JOINT LeftHandIndex3
										{
											OFFSET 7.512344 0.000000 0.000000
											CHANNELS 3 Xrotation Yrotation Zrotation
											JOINT LeftHandIndex4
											{
												OFFSET 10.212402 0.000000 0.000001
												CHANNELS 3 Xrotation Yrotation Zrotation
												End Site
												{
													OFFSET -5.180801 8.690506 1.388433
												}
											}
										}
									}
								}
							}
						}
					}
				}
				JOINT RightShoulder
				{
					OFFSET -17.399500 24.608795 1.168800
					CHANNELS 3 Xrotation Yrotation Zrotation
					JOINT RightArm
					{
						OFFSET -18.980635 5.765305 1.818600
						CHANNELS 3 Xrotation Yrotation Zrotation
						JOINT RightForeArm
						{
							OFFSET -49.290169 0.000000 0.000000
							CHANNELS 3 Xrotation Yrotation Zrotation
							JOINT RightHand
							{
								OFFSET -31.562012 0.000000 0.000000
								CHANNELS 3 Xrotation Yrotation Zrotation
								JOINT RightHandThumb1
								{
									OFFSET -6.133995 -4.388519 7.076070
									CHANNELS 3 Xrotation Yrotation Zrotation
									JOINT RightHandThumb2
									{
										OFFSET -6.037666 -3.485840 3.485847
										CHANNELS 3 Xrotation Yrotation Zrotation
										JOINT RightHandThumb3
										{
											OFFSET -6.496506 -3.750763 3.750761
											CHANNELS 3 Xrotation Yrotation Zrotation
											JOINT RightHandThumb4
											{
												OFFSET -5.616882 -3.242905 3.242910
												CHANNELS 3 Xrotation Yrotation Zrotation
												End Site
												{
													OFFSET 1.254608 7.132141 0.375429
												}
											}
										}
									}
								}
								JOINT RightHandIndex1
								{
									OFFSET -21.310577 -0.490082 6.209344
									CHANNELS 3 Xrotation Yrotation Zrotation
									JOINT RightHandIndex2
									{
										OFFSET -7.536453 0.000000 0.000000
										CHANNELS 3 Xrotation Yrotation Zrotation
										JOINT RightHandIndex3
										{
											OFFSET -7.512344 0.000000 0.000000
											CHANNELS 3 Xrotation Yrotation Zrotation
											JOINT RightHandIndex4
											{
												OFFSET -10.212402 0.000000 0.000001
												CHANNELS 3 Xrotation Yrotation Zrotation
												End Site
												{
													OFFSET 5.180801 8.690506 1.388433
												}
											}
										}
									}
								}
								JOINT RightHandMiddle1
								{
									OFFSET -23.373947 0.000000 0.000001
									CHANNELS 3 Xrotation Yrotation Zrotation
									JOINT RightHandMiddle2
									{
										OFFSET -6.996567 0.000000 0.000000
										CHANNELS 3 Xrotation Yrotation Zrotation
										JOINT RightHandMiddle3
										{
											OFFSET -7.015945 0.000000 0.000000
											CHANNELS 3 Xrotation Yrotation Zrotation
											JOINT RightHandMiddle4
											{
												OFFSET -7.721573 0.000000 0.000000
												CHANNELS 3 Xrotation Yrotation Zrotation
												End Site
												{
													OFFSET 4.651108 6.158463 0.251582
												}
											}
										}
									}
								}
								JOINT RightHandRing1
								{
									OFFSET -22.726120 -0.094986 -6.500475
									CHANNELS 3 Xrotation Yrotation Zrotation
									JOINT RightHandRing2
									{
										OFFSET -6.408615 0.000000 0.000000
										CHANNELS 3 Xrotation Yrotation Zrotation
										JOINT RightHandRing3
										{
											OFFSET -6.150223 0.000000 0.000000
											CHANNELS 3 Xrotation Yrotation Zrotation
											JOINT RightHandRing4
											{
												OFFSET -6.145386 0.000000 0.000000
												CHANNELS 3 Xrotation Yrotation Zrotation
												End Site
												{
													OFFSET 3.671402 4.923981 -0.202372
												}
											}
										}
									}
								}
								JOINT RightHandPinky1
								{
									OFFSET -18.920792 -0.453171 -11.426712
									CHANNELS 3 Xrotation Yrotation Zrotation
									JOINT RightHandPinky2
									{
										OFFSET -4.919586 0.000000 0.000000
										CHANNELS 3 Xrotation Yrotation Zrotation
										JOINT RightHandPinky3
										{
											OFFSET -5.233047 0.000000 0.000000
											CHANNELS 3 Xrotation Yrotation Zrotation
											JOINT RightHandPinky4
											{
												OFFSET -5.571716 0.000000 0.000000
												CHANNELS 3 Xrotation Yrotation Zrotation
												End Site
												{
													OFFSET 3.459808 4.342407 -0.466164
												}
											}
										}
									}
								}
							}
						}
					}
				}
			}
		}
	}
	JOINT LeftUpLeg
	{
		OFFSET 19.899099 -7.885101 -3.429500
		CHANNELS 3 Xrotation Yrotation Zrotation
		JOINT LeftLeg
		{
			OFFSET 1.745560 -36.997807 10.304700
			CHANNELS 3 Xrotation Yrotation Zrotation
			JOINT LeftFoot
			{
				OFFSET -1.745558 -29.803308 -13.615400
				CHANNELS 3 Xrotation Yrotation Zrotation
				JOINT LeftToeBase
				{
					OFFSET 1.181900 -18.539904 15.226099
					CHANNELS 3 Xrotation Yrotation Zrotation
					JOINT LeftToe_End
					{
						OFFSET -0.863701 1.402801 16.534700
						CHANNELS 3 Xrotation Yrotation Zrotation
						End Site
						{
							OFFSET 0.000000 16.616566 0.000000
						}
					}
				}
			}
		}
	}
	JOINT RightUpLeg
	{
		OFFSET -19.899099 -7.885101 -3.429500
		CHANNELS 3 Xrotation Yrotation Zrotation
		JOINT RightLeg
		{
			OFFSET -1.745560 -36.997807 10.304700
			CHANNELS 3 Xrotation Yrotation Zrotation
			JOINT RightFoot
			{
				OFFSET 1.745558 -29.803308 -13.615400
				CHANNELS 3 Xrotation Yrotation Zrotation
				JOINT RightToeBase
				{
					OFFSET -1.181900 -18.539904 15.226099
					CHANNELS 3 Xrotation Yrotation Zrotation
					JOINT RightToe_End
					{
						OFFSET 0.863701 1.402801 16.534700
						CHANNELS 3 Xrotation Yrotation Zrotation
						End Site
						{
							OFFSET 0.000000 16.616566 0.000000
						}
					}
				}
			}
		}
	}
}
MOTION
Frames: 4
Frame Time: 0.033333
1.054913 86.192001 0.994339 -24.494858 -1.924912 -2.556321 11.275843 -5.098060 0.288320 3.545656 -2.400649 -0.151373 3.557023 -2.388378 -0.108335 1.551791 0.634302 -1.308390 -6.938527 0.762142 3.865453 0.000000 -0.000001 0.000000 0.445071 -15.488180 -11.025449 -20.285402 3.054806 -36.773520 0.000039 -67.201876 0.000039 -41.640006 -11.471789 -7.743369 -22.783315 -14.798035 12.273480 3.104734 10.435595 14.815860 3.249492 44.532646 6.783438 -0.000002 0.000003 -0.000001 -10.204765 21.361483 28.797816 0.278391 1.786140 -17.716440 1.528168 3.946817 -42.319340 -0.000000 0.000001 0.000001 -6.190620 13.399321 27.815694 3.764265 5.467480 -69.071934 1.278684 3.654648 -38.556541 -0.000001 -0.000001 0.000005 -0.918332 3.905214 20.820669 2.974883 5.097476 -60.513816 3.267001 5.251291 -63.751825 -0.000000 -0.000000 0.000006 1.968596 -2.875742 26.071472 3.265020 5.250348 -63.730412 1.613358 4.038090 -43.542432 -0.000000 0.000002 -0.000001 0.064830 14.691500 14.953775 -12.069970 -6.923771 61.446615 0.000036 39.415499 -0.000024 -1.892030 -4.118502 24.314867 -20.073134 16.089474 -24.921347 8.794370 -40.952735 -1.386060 -0.155103 -28.868778 -23.120250 -0.000000 0.000002 -0.000000 1.063120 -5.182548 38.505495 3.100496 -4.389857 70.453026 0.158029 1.204122 -14.952683 -0.000005 -0.000001 -0.000003 2.946401 -6.593257 70.499874 0.642387 -2.362177 30.423141 0.145574 1.156532 -14.348491 -0.000002 0.000000 -0.000008 5.948320 -7.199732 80.598568 0.322666 -1.704975 21.432119 0.002682 -0.158670 1.948214 -0.000006 0.000004 -0.000003 1.932477 -22.479085 97.263301 1.111355 -3.021269 40.383989 3.356368 -4.472211 73.763987 0.000003 -0.000001 0.000007 -2.189515 6.662022 7.201398 54.546003 3.419550 0.042185 -3.991484 0.885870 -8.528348 -18.737490 -1.250261 3.955374 -0.000000 0.000000 -0.000000 9.403709 -8.835334 3.043466 36.685219 -5.234358 -0.429560 -21.686954 2.272038 -1.374237 0.005622 0.000624 -0.014360 0.000000 -0.000001 -0.000000 
0.470283 87.005905 5.224537 -23.857899 -1.497999 -1.776095 10.792332 -4.732514 -0.152992 3.542858 -2.354603 -0.177981 3.553957 -2.342667 -0.136400 1.570001 0.652310 -1.326926 -7.225383 1.020122 3.834997 0.000000 0.000000 0.000000 0.421465 -15.339435 -11.175072 -20.298651 2.673411 -36.641824 0.000043 -67.096992 0.000047 -41.650350 -11.429355 -7.737690 -22.783320 -14.798030 12.273484 3.175835 10.435621 14.761880 3.395368 44.546764 6.658843 0.000001 -0.000003 -0.000002 -10.251262 21.386921 28.877135 0.284676 1.805713 -17.917289 1.509576 3.926336 -42.048468 -0.000001 0.000001 -0.000004 -6.142591 13.389153 27.666077 3.769737 5.469570 -69.129424 1.278684 3.654649 -38.556534 -0.000000 0.000000 -0.000000 -0.902746 3.903150 20.612160 2.977622 5.099032 -60.544723 3.266527 5.251061 -63.746647 0.000001 -0.000000 0.000004 2.000198 -2.966124 25.849206 3.284227 5.259734 -63.940037 1.611759 4.036484 -43.520408 -0.000001 0.000001 -0.000001 0.066105 14.840717 14.920142 -11.947825 -7.013359 61.430107 -0.000014 39.458805 0.000040 -2.121087 -4.069058 24.236595 -20.073130 16.089470 -24.921347 8.794371 -40.952732 -1.386058 -0.228989 -28.797860 -23.222032 -0.000000 -0.000001 0.000001 1.081343 -5.171464 38.506998 3.064611 -4.376973 69.983471 0.156845 1.199703 -14.896518 0.000001 -0.000001 -0.000001 2.967631 -6.600749 70.505912 0.642442 -2.362270 30.424504 0.146077 1.158481 -14.373267 -0.000000 0.000000 -0.000004 5.951690 -7.198852 80.639262 0.322762 -1.705175 21.434752 0.002686 -0.158673 1.948215 -0.000002 0.000000 -0.000005 1.920495 -22.454428 97.316262 1.109142 -3.018667 40.341990 3.354278 -4.471604 73.737220 -0.000003 -0.000004 0.000005 -6.250841 7.290415 6.541235 48.460373 4.003286 -0.902111 -4.781707 0.733897 -6.962238 -8.499621 -0.638868 5.215240 -0.000001 0.000001 -0.000000 14.403011 -8.827907 3.007955 33.820556 -5.631222 -0.502375 -24.484541 2.079532 -0.602153 0.006255 0.000617 -0.016168 0.000000 -0.000000 -0.000000 
-0.001930 87.572189 9.175060 -23.157108 -1.268198 -0.960996 10.300902 -4.172927 -0.724892 3.552036 -2.269371 -0.216613 3.562629 -2.257845 -0.176904 1.550504 0.644572 -1.324791 -7.426253 1.085301 3.817542 0.000001 -0.000001 -0.000000 0.415375 -15.102383 -11.204737 -20.475454 2.192676 -36.776488 0.000078 -66.873037 0.000062 -41.492351 -11.357876 -7.828207 -22.783317 -14.798032 12.273484 3.236336 10.435679 14.715779 3.437636 44.550411 6.618979 0.000001 0.000003 0.000000 -10.268897 21.454259 28.849616 0.283517 1.802145 -17.880614 1.493726 3.908678 -41.816033 0.000002 0.000002 -0.000002 -6.137800 13.415337 27.606966 3.774008 5.471181 -69.174257 1.278684 3.654648 -38.556534 -0.000000 0.000000 -0.000000 -0.901882 3.929283 20.464640 2.980890 5.100862 -60.581312 3.260971 5.248338 -63.685968 0.000001 0.000000 0.000007 1.958691 -2.917811 25.543898 3.282640 5.258944 -63.922552 1.612097 4.036816 -43.524896 -0.000002 0.000001 0.000001 0.063584 14.907151 14.928818 -11.851689 -7.139371 61.411529 0.000016 39.525284 0.000012 -2.304237 -4.018994 24.176704 -20.073130 16.089475 -24.921347 8.794365 -40.952728 -1.386058 -0.245264 -28.782253 -23.244423 -0.000001 0.000003 -0.000001 1.099125 -5.160659 38.508422 3.071736 -4.379570 70.077010 0.156280 1.197554 -14.869127 -0.000003 -0.000001 -0.000001 2.965137 -6.599530 70.413151 0.641950 -2.361413 30.412315 0.145809 1.157382 -14.359342 -0.000001 0.000001 -0.000002 5.971197 -7.205657 80.540061 0.322788 -1.705245 21.435724 0.002682 -0.158669 1.948215 -0.000006 0.000001 -0.000003 1.847918 -22.438471 97.130016 1.108533 -3.017953 40.330382 3.356494 -4.472246 73.765476 0.000000 -0.000001 0.000004 -9.437077 7.680689 5.667190 41.349333 5.204783 -1.851131 -5.698661 0.691829 -5.868277 -1.204285 -0.000002 0.000002 0.000000 -0.000000 0.000000 18.822842 -8.601908 2.946915 30.967487 -6.141836 -0.810694 -26.806023 1.767778 0.295444 0.005361 0.000420 -0.013624 0.000000 -0.000001 0.000000 
-0.369269 87.791756 12.772961 -22.574269 -1.161504 -0.067635 9.946391 -3.506744 -1.423423 3.578070 -2.169080 -0.252098 3.588118 -2.157869 -0.214074 1.506168 0.632132 -1.333768 -7.571952 1.101244 3.755772 -0.000000 -0.000000 -0.000000 0.422113 -14.865936 -11.147301 -20.703632 1.714259 -37.034010 0.000085 -66.614992 0.000066 -41.301495 -11.309811 -7.942936 -22.783319 -14.798032 12.273484 3.261984 10.435657 14.696322 3.378106 44.544202 6.664516 -0.000001 -0.000004 -0.000002 -10.292343 21.521303 28.835611 0.281827 1.796844 -17.826017 1.491807 3.906570 -41.788289 0.000001 0.000004 0.000001 -6.149408 13.464124 27.568076 3.777708 5.472566 -69.212875 1.278682 3.654646 -38.556537 -0.000000 0.000000 0.000003 -0.900501 3.950924 20.334199 2.986167 5.103810 -60.640728 3.264526 5.250109 -63.725228 -0.000000 0.000001 0.000004 1.894228 -2.787148 25.256742 3.262405 5.249029 -63.701582 1.624827 4.050163 -43.705650 0.000001 0.000001 0.000002 0.058884 14.963684 14.956395 -11.772884 -7.322614 61.378033 -0.000010 39.651427 0.000029 -2.450092 -3.986617 24.127527 -20.073130 16.089474 -24.921347 8.794371 -40.952732 -1.386062 -0.251602 -28.776243 -23.253114 -0.000003 -0.000004 -0.000001 1.154024 -5.127288 38.512875 3.091492 -4.386650 70.335225 0.155603 1.195050 -14.837162 0.000002 -0.000003 -0.000001 2.925638 -6.584456 70.142334 0.639956 -2.358017 30.363951 0.144842 1.153603 -14.311608 -0.000003 0.000002 -0.000003 6.023960 -7.218208 80.439356 0.322881 -1.705476 21.438745 0.002685 -0.158670 1.948214 -0.000005 0.000002 -0.000007 1.740498 -22.410576 96.868482 1.107397 -3.016625 40.308901 3.358388 -4.472797 73.789819 0.000002 -0.000001 0.000004 -11.636835 7.783253 4.847894 33.906661 7.938776 -2.722074 -7.088133 0.966527 -6.096450 -1.369101 -0.000012 -0.000003 -0.000000 0.000001 0.000000 22.714136 -8.281732 2.683678 28.630889 -6.680748 -1.153830 -29.008937 1.301569 1.200079 0.000397 0.000017 -0.000971 -0.000000 -0.000000 0.000000 
